PathFileType	4	(X/Y/Z)	s07c0303.trc
DataRate	CameraRate	NumFrames	NumMarkers	Units	OrigDataRate	OrigDataStartFrame	OrigNumFrames
200	200	7	48	mm	200	1500	2000
Frame#	Time	racr			lacr			c7			jug			rlel			rdr			llel			ldr			s2			lic			ric			lasi			rasi			rpsi			lpsi			rgt			lgt			rth1			rth2			rth3			rth4			rlfc			rmfc			rsh1			rsh2			rsh3			rsh4			rlmal			rcal			rtoe			rmt5			lth1			lth2			lth4			lth3			llfc			lmfc			lsh1			lsh2			lsh3			lsh4			llmal			lcal			ltoe			lmt5			SBIKE			LBIKE			RBIKE			
		X1	Y1	Z1	X2	Y2	Z2	X3	Y3	Z3	X4	Y4	Z4	X5	Y5	Z5	X6	Y6	Z6	X7	Y7	Z7	X8	Y8	Z8	X9	Y9	Z9	X10	Y10	Z10	X11	Y11	Z11	X12	Y12	Z12	X13	Y13	Z13	X14	Y14	Z14	X15	Y15	Z15	X16	Y16	Z16	X17	Y17	Z17	X18	Y18	Z18	X19	Y19	Z19	X20	Y20	Z20	X21	Y21	Z21	X22	Y22	Z22	X23	Y23	Z23	X24	Y24	Z24	X25	Y25	Z25	X26	Y26	Z26	X27	Y27	Z27	X28	Y28	Z28	X29	Y29	Z29	X30	Y30	Z30	X31	Y31	Z31	X32	Y32	Z32	X33	Y33	Z33	X34	Y34	Z34	X35	Y35	Z35	X36	Y36	Z36	X37	Y37	Z37	X38	Y38	Z38	X39	Y39	Z39	X40	Y40	Z40	X41	Y41	Z41	X42	Y42	Z42	X43	Y43	Z43	X44	Y44	Z44	X45	Y45	Z45	X46	Y46	Z46	X47	Y47	Z47	X48	Y48	Z48	
1500	7.5000	797.315665	1403.522259	-135.621111	814.668074	1348.833582	-457.993106	812.857701	1433.335604	-301.306774	749.428745	1293.058300	-289.279044	594.661504	1147.813351	15.388061	731.141027	910.929805	-77.795810	563.886190	1110.076128	-564.586799	719.847763	910.656318	-428.442781	208.797097	1298.678490	-273.945173	354.420818	1302.451752	-437.309695	395.955880	1305.059133	-146.258526	368.245235	1224.400948	-408.885615	400.229023	1249.486385	-159.939205	249.265363	1333.513860	-227.602591	248.758818	1335.173444	-338.434544	323.041628	1190.350526	-90.196246	263.909154	1163.318515	-442.028675	416.379136	1055.675049	-89.052087	472.275601	989.249841	-101.450678	493.968251	906.554969	-96.662099	498.575157	1003.880486	-123.534455	522.495712	776.102331	-123.245528	500.784830	763.954053	-226.568876	393.158149	717.752885	-93.503681	326.477329	660.346970	-102.889600	241.221245	642.337651	-95.187190	334.977564	641.663044	-139.322141	115.610385	584.203879	-86.947002	49.758063	619.363417	-116.190681	156.745684	348.478737	-129.544730	97.857007	406.464629	-58.640469	290.515173	1040.125608	-447.054528	337.216800	965.625156	-448.516693	372.441358	975.768830	-444.428642	341.359514	877.465131	-437.228093	388.483254	712.236767	-403.337296	378.725220	698.649244	-313.214982	321.512928	579.595972	-421.291114	311.596396	496.457676	-399.769257	258.683210	422.864241	-401.515578	316.520213	499.484611	-357.687561	198.943818	302.294323	-394.965899	123.430172	275.326080	-360.389570	406.336272	207.851190	-365.335171	320.325017	196.792368	-427.131351	-259.986407	962.456270	-238.454560	-82.273368	79.104175	-436.246419	-82.319924	79.789616	-38.641341	
1501	7.5050	796.817843	1404.383151	-133.018127	815.653774	1347.662385	-451.665160	813.114190	1433.682816	-298.296475	749.822869	1293.268410	-285.837477	594.693825	1147.519523	16.785350	731.093875	910.990070	-77.515161	566.294881	1111.462923	-565.395487	720.059451	910.667145	-428.675447	209.172280	1296.199864	-278.075617	357.186084	1298.577133	-439.027680	394.191862	1304.958149	-147.857447	370.844044	1220.434776	-409.675814	398.791709	1249.296184	-160.645925	248.812242	1331.788606	-231.613994	250.231713	1331.822717	-341.924835	321.634921	1190.770405	-91.227317	266.059749	1159.563039	-443.412360	417.720688	1058.423735	-90.088302	475.255584	992.943932	-101.221884	498.185447	910.911330	-95.953232	501.779116	1008.147086	-122.594429	529.147458	780.296674	-122.057302	508.220440	768.236760	-225.314181	399.288956	723.248961	-93.239550	331.970703	666.699412	-102.930283	246.495918	649.671321	-95.639633	339.967964	647.364014	-139.157038	120.621478	592.374036	-87.819998	53.768202	626.781530	-117.394519	166.187444	358.079356	-129.303326	105.765661	415.086126	-58.899565	289.097897	1036.144540	-448.463581	333.274498	960.094323	-449.235220	368.814044	969.052854	-444.821773	334.356759	871.756904	-437.757452	376.932036	706.309374	-403.321197	366.048706	692.862999	-314.092236	311.188652	573.527688	-421.561752	302.185068	490.313575	-400.195784	250.024228	416.431773	-402.749854	306.583897	493.588881	-357.975990	191.402199	294.928832	-395.263994	116.064490	268.744196	-360.733392	398.679334	199.752209	-365.093664	312.814761	188.920487	-426.979126	-260.001488	962.444728	-238.479909	-82.297318	79.096791	-436.234676	-82.334686	79.771197	-38.645398	
1502	7.5100	796.123785	1405.372779	-129.764386	817.538140	1347.830337	-447.671309	813.311386	1434.132403	-295.067587	750.788212	1293.306204	-282.106579	594.664110	1147.131599	18.209485	731.041029	910.994726	-77.266030	568.873990	1112.939402	-566.034740	720.301452	910.688484	-428.894286	209.518740	1293.661259	-282.049534	360.270438	1294.617321	-440.682544	392.458885	1304.865592	-149.493193	373.430227	1216.470129	-410.583678	397.440561	1249.030944	-161.386209	248.294237	1329.766936	-235.937591	252.005694	1328.250445	-344.671641	320.290972	1191.248876	-92.320414	268.206710	1155.859461	-444.868442	419.037600	1061.284404	-91.293071	478.162597	996.741777	-100.801992	502.289967	915.154682	-94.975424	504.970230	1012.450588	-121.452817	535.548670	784.610638	-120.678072	515.918078	772.511386	-224.364867	405.757297	728.582833	-92.681907	337.974265	672.446721	-102.899891	252.412760	656.198297	-95.955207	346.546487	653.262073	-138.620166	126.272373	600.014419	-88.673357	58.938047	633.474997	-118.620570	175.691831	366.735733	-129.089422	114.227156	423.034294	-59.033880	287.590954	1032.366299	-450.014179	329.296447	954.737097	-449.703971	365.075417	962.686556	-445.294467	327.173202	866.519843	-438.654310	365.255084	701.031829	-403.774549	353.223990	687.679315	-314.806542	300.561601	568.081203	-422.237304	292.443015	484.769957	-400.799667	241.068107	410.319684	-403.374355	296.579937	488.236080	-358.596375	183.611247	288.234186	-395.555201	108.451724	262.906403	-361.066780	390.596251	191.840515	-364.716050	304.815454	181.556470	-426.797081	-260.003183	962.477264	-238.541386	-82.265241	78.920745	-436.143218	-82.348782	79.730584	-38.631617	
1503	7.5150	795.240518	1406.475155	-126.441019	818.451302	1346.884980	-439.004355	813.372715	1434.460225	-291.449184	751.403994	1293.572876	-278.264647	594.442971	1146.707290	19.583333	730.989926	911.082792	-76.988482	571.559094	1114.704648	-566.605135	720.579124	910.710640	-429.092177	209.960296	1291.011990	-286.129312	363.278425	1290.749179	-442.090516	390.591489	1304.901535	-149.920623	376.009897	1212.453957	-411.480218	396.101115	1248.930556	-162.232083	247.979566	1327.418959	-240.485161	253.437036	1325.129806	-348.880836	318.991936	1191.854465	-93.483400	270.114717	1151.953725	-445.929694	420.413660	1064.084284	-92.225657	480.869307	1000.526045	-100.174562	506.118286	919.420523	-94.007233	507.793840	1016.770938	-120.267670	542.133393	789.872229	-119.027258	523.531587	777.059140	-222.946110	412.542699	733.600305	-92.092725	344.507492	677.939801	-102.772359	258.805577	661.969772	-96.209801	353.860201	658.377000	-138.329779	132.525302	606.841229	-89.672460	64.692832	639.720527	-119.840479	185.302709	374.467127	-129.032706	122.858973	430.372981	-59.339726	286.025238	1028.935477	-451.625885	325.143897	949.937995	-450.900736	360.885682	957.039813	-446.421602	320.094088	861.980200	-439.906922	353.430458	696.375542	-404.613364	339.823620	683.903790	-316.032393	289.407057	563.332527	-423.235012	282.353420	479.943569	-401.758583	231.721866	404.983847	-404.205307	286.606946	483.620590	-359.914951	175.640548	282.373510	-396.011780	100.567766	257.868828	-361.543836	382.105987	184.478194	-364.269261	296.531901	174.764602	-426.547836	-259.999425	962.392499	-238.478251	-82.281176	78.924490	-436.113916	-82.359880	79.672603	-38.601255	
1504	7.5200	794.280423	1407.523601	-123.127418	820.384399	1347.208927	-434.603407	813.413892	1434.946624	-287.879431	752.114105	1293.901635	-274.724439	594.022896	1146.343609	20.940622	730.883540	911.215078	-76.713976	574.400020	1116.378096	-566.977579	720.896709	910.720587	-429.259319	210.438200	1288.354753	-290.187729	366.507747	1286.713318	-443.572137	388.862071	1304.903737	-151.540589	378.647469	1208.513587	-412.278241	394.776602	1248.828028	-162.898940	247.483491	1325.411050	-244.527589	254.695694	1321.990295	-354.049970	317.688369	1192.442049	-94.986482	272.084868	1148.492956	-447.322817	421.556126	1066.812736	-91.972336	483.311552	1004.390554	-99.375947	509.804950	923.571169	-92.967022	510.105541	1021.140902	-119.176077	548.852525	795.001737	-117.351975	531.308168	781.722693	-221.340097	419.595823	738.351566	-91.562848	351.418898	682.772486	-102.570062	265.653664	667.077012	-96.432301	360.846697	663.437913	-138.051380	128.849861	614.702393	-101.149977	71.251617	645.354068	-120.366605	195.210799	381.647948	-129.502326	132.474196	436.909782	-59.615243	284.422777	1025.928687	-453.241747	320.971995	945.733407	-452.316876	356.857518	951.629368	-447.279608	313.332833	858.060858	-441.171728	341.637426	692.347980	-405.686858	328.465463	679.334604	-317.118160	278.331796	559.193588	-424.499064	272.055729	475.739937	-402.920232	222.065978	400.332519	-405.255830	276.842373	479.958325	-361.442874	167.450599	277.223522	-396.311128	92.516671	253.592405	-362.121614	373.346720	177.551115	-363.805439	287.815401	168.461146	-426.361184	-260.050673	962.367551	-238.309612	-82.282805	78.916386	-436.110208	-82.389183	79.623989	-38.601985	
1505	7.5250	793.136070	1408.775755	-119.321859	822.209595	1347.672153	-430.004897	813.372523	1435.466781	-284.117394	752.602400	1294.340230	-270.828294	593.401216	1146.014773	22.278715	730.126795	910.902422	-76.841123	577.358880	1118.076469	-567.186996	721.254549	910.701924	-429.381670	210.972949	1285.829764	-294.142585	369.654454	1282.787607	-444.715352	387.194867	1304.924756	-153.665972	381.379811	1204.661263	-412.973931	393.406097	1248.938423	-163.488288	247.109197	1323.429631	-248.470937	256.145898	1318.955846	-358.023333	316.212709	1192.896821	-96.427650	274.055969	1145.280805	-448.657974	422.596436	1069.564498	-91.100961	485.518520	1008.338315	-98.490825	513.427329	927.907292	-91.593687	511.953542	1025.507144	-118.325574	555.518107	800.387250	-115.513553	539.127625	786.663615	-219.824379	426.900333	742.695422	-90.717164	358.652618	687.380278	-102.272769	272.760296	671.871412	-96.435752	368.062663	668.367401	-137.929368	120.312453	622.655045	-117.798608	78.206670	650.279103	-120.646396	205.583901	388.774517	-129.000077	142.305435	442.861641	-60.080617	282.731820	1023.421892	-454.919937	316.765082	942.065581	-453.823959	352.783158	946.862792	-448.279008	306.926420	854.729051	-442.435433	329.776440	688.977674	-406.769858	316.429727	676.048851	-318.403229	267.231022	555.761868	-425.855371	261.739889	472.270999	-404.445262	212.263273	396.443813	-406.397337	266.825954	476.378891	-362.889847	159.239345	272.681297	-396.820274	84.306279	250.267067	-362.692720	364.335713	171.073848	-363.467086	279.005642	162.555141	-426.007096	-260.111497	962.341880	-238.146356	-82.300931	78.920011	-436.093110	-82.403250	79.624337	-38.569806	
1506	7.5300	791.902098	1409.932863	-115.721828	824.127971	1348.203240	-425.432148	813.367691	1435.893500	-280.150477	752.975027	1294.739304	-266.842398	592.650068	1145.594214	23.574923	729.959673	911.050387	-76.691036	580.407136	1119.760617	-567.254528	721.647190	910.636641	-429.440988	211.616039	1283.407439	-298.059990	372.966665	1278.935832	-445.714141	385.395561	1304.763972	-155.090232	384.099406	1200.977606	-413.796718	392.210948	1248.621540	-165.045753	246.779376	1321.588495	-252.226272	257.759007	1315.870717	-361.640026	314.767031	1193.472320	-97.906079	275.989401	1142.268249	-449.918018	423.492530	1072.187989	-90.289096	487.580628	1012.275206	-97.674235	517.419138	932.497591	-90.774477	513.559434	1029.907333	-117.690420	562.142728	806.023421	-113.732107	546.992287	791.775399	-218.176224	434.305525	746.901433	-89.577404	366.095799	691.740354	-101.873947	280.283357	675.851735	-96.401065	375.472722	673.346001	-137.828096	111.979440	629.756501	-134.311081	85.158140	654.735922	-120.599891	215.685870	394.203699	-130.071862	152.212943	448.242670	-60.403613	281.093032	1021.436424	-456.552235	312.603364	939.074123	-455.444679	348.734977	942.727772	-449.430524	300.911797	851.952013	-443.684806	318.134321	686.360579	-408.257268	304.785874	673.338066	-319.835081	256.306172	552.771945	-427.184561	251.490903	469.482509	-406.078877	202.490999	393.319819	-407.730404	256.338351	473.186772	-364.545482	151.038372	269.103528	-397.656295	75.918746	247.367644	-363.063210	355.042940	165.038927	-363.181986	269.802123	157.301922	-425.918892	-260.180475	962.322849	-238.002830	-82.311546	78.940158	-436.085633	-82.406903	79.604479	-38.583585	
